<mxfile host="app.diagrams.net" modified="2020-10-21T01:46:23.235Z" agent="5.0 (Windows NT 10.0; Win64; x64) AppleWebKit/537.36 (KHTML, like Gecko) Chrome/86.0.4240.75 Safari/537.36" etag="mdsN4-e7ABdnUqbgNuuB" version="13.8.1" type="github">
  <diagram id="UOJKZq3eMTvmVNcWkfyv" name="Page-1">
    <mxGraphModel dx="1038" dy="547" grid="0" gridSize="10" guides="1" tooltips="1" connect="1" arrows="1" fold="1" page="1" pageScale="1" pageWidth="1169" pageHeight="827" math="0" shadow="0">
      <root>
        <mxCell id="0" />
        <mxCell id="1" parent="0" />
        <mxCell id="xnhKSYxCUKzfGCIBuKpv-74" value="" style="rounded=0;whiteSpace=wrap;html=1;fontSize=17;dashed=1;dashPattern=1 1;fillColor=#f5f5f5;strokeColor=#666666;fontColor=#333333;" vertex="1" parent="1">
          <mxGeometry x="114" y="58" width="667" height="403" as="geometry" />
        </mxCell>
        <mxCell id="xnhKSYxCUKzfGCIBuKpv-42" value="" style="rounded=0;whiteSpace=wrap;html=1;fontSize=12;dashed=1;" vertex="1" parent="1">
          <mxGeometry x="470" y="100" width="120" height="300" as="geometry" />
        </mxCell>
        <mxCell id="xnhKSYxCUKzfGCIBuKpv-45" value="" style="edgeStyle=orthogonalEdgeStyle;rounded=0;orthogonalLoop=1;jettySize=auto;html=1;endArrow=blockThin;endFill=1;endSize=12;fontSize=12;entryX=0;entryY=0.5;entryDx=0;entryDy=0;exitX=0.5;exitY=1;exitDx=0;exitDy=0;" edge="1" parent="1" source="xnhKSYxCUKzfGCIBuKpv-19" target="xnhKSYxCUKzfGCIBuKpv-26">
          <mxGeometry relative="1" as="geometry">
            <Array as="points">
              <mxPoint x="530" y="410" />
              <mxPoint x="610" y="410" />
              <mxPoint x="610" y="399" />
            </Array>
          </mxGeometry>
        </mxCell>
        <mxCell id="xnhKSYxCUKzfGCIBuKpv-50" value="" style="edgeStyle=orthogonalEdgeStyle;rounded=0;orthogonalLoop=1;jettySize=auto;html=1;endArrow=blockThin;endFill=1;endSize=12;fontSize=12;entryX=0;entryY=0.5;entryDx=0;entryDy=0;" edge="1" parent="1" source="xnhKSYxCUKzfGCIBuKpv-1" target="xnhKSYxCUKzfGCIBuKpv-16">
          <mxGeometry relative="1" as="geometry" />
        </mxCell>
        <mxCell id="xnhKSYxCUKzfGCIBuKpv-51" value="事件" style="edgeLabel;html=1;align=center;verticalAlign=middle;resizable=0;points=[];fontSize=12;" vertex="1" connectable="0" parent="xnhKSYxCUKzfGCIBuKpv-50">
          <mxGeometry x="0.0841" y="3" relative="1" as="geometry">
            <mxPoint as="offset" />
          </mxGeometry>
        </mxCell>
        <mxCell id="xnhKSYxCUKzfGCIBuKpv-1" value="" style="shape=cylinder3;whiteSpace=wrap;html=1;boundedLbl=1;backgroundOutline=1;size=15;rotation=90;fillColor=#d5e8d4;strokeColor=#82b366;" vertex="1" parent="1">
          <mxGeometry x="310" y="189" width="146" height="83" as="geometry" />
        </mxCell>
        <mxCell id="xnhKSYxCUKzfGCIBuKpv-37" value="事件" style="rounded=0;orthogonalLoop=1;jettySize=auto;html=1;fontSize=10;exitX=1;exitY=0.5;exitDx=0;exitDy=0;entryX=0.5;entryY=1;entryDx=0;entryDy=0;entryPerimeter=0;elbow=vertical;endArrow=blockThin;endFill=1;endSize=12;" edge="1" parent="1" source="xnhKSYxCUKzfGCIBuKpv-2" target="xnhKSYxCUKzfGCIBuKpv-1">
          <mxGeometry relative="1" as="geometry" />
        </mxCell>
        <mxCell id="xnhKSYxCUKzfGCIBuKpv-2" value="输入插件" style="rounded=1;whiteSpace=wrap;html=1;fontSize=17;fillColor=#fff2cc;strokeColor=#d6b656;" vertex="1" parent="1">
          <mxGeometry x="130" y="100" width="120" height="60" as="geometry" />
        </mxCell>
        <mxCell id="xnhKSYxCUKzfGCIBuKpv-3" value="编解码器" style="rounded=0;whiteSpace=wrap;html=1;fontSize=8;" vertex="1" parent="1">
          <mxGeometry x="130" y="100" width="20" height="60" as="geometry" />
        </mxCell>
        <mxCell id="xnhKSYxCUKzfGCIBuKpv-4" value="输出插件" style="rounded=1;whiteSpace=wrap;html=1;fontSize=17;fillColor=#dae8fc;strokeColor=#6c8ebf;" vertex="1" parent="1">
          <mxGeometry x="640" y="100" width="120" height="60" as="geometry" />
        </mxCell>
        <mxCell id="xnhKSYxCUKzfGCIBuKpv-5" value="&lt;font style=&quot;font-size: 10px&quot;&gt;编解码器&lt;/font&gt;" style="rounded=0;whiteSpace=wrap;html=1;fontSize=8;" vertex="1" parent="1">
          <mxGeometry x="740" y="100" width="20" height="60" as="geometry" />
        </mxCell>
        <mxCell id="xnhKSYxCUKzfGCIBuKpv-38" value="" style="rounded=0;orthogonalLoop=1;jettySize=auto;html=1;fontSize=17;entryX=0.5;entryY=1;entryDx=0;entryDy=0;entryPerimeter=0;elbow=vertical;endArrow=blockThin;endFill=1;endSize=12;" edge="1" parent="1" source="xnhKSYxCUKzfGCIBuKpv-8" target="xnhKSYxCUKzfGCIBuKpv-1">
          <mxGeometry relative="1" as="geometry">
            <mxPoint x="340" y="228" as="targetPoint" />
          </mxGeometry>
        </mxCell>
        <mxCell id="xnhKSYxCUKzfGCIBuKpv-41" value="事件" style="edgeLabel;html=1;align=center;verticalAlign=middle;resizable=0;points=[];fontSize=10;" vertex="1" connectable="0" parent="xnhKSYxCUKzfGCIBuKpv-38">
          <mxGeometry x="-0.2722" y="1" relative="1" as="geometry">
            <mxPoint as="offset" />
          </mxGeometry>
        </mxCell>
        <mxCell id="xnhKSYxCUKzfGCIBuKpv-8" value="输入插件" style="rounded=1;whiteSpace=wrap;html=1;fontSize=17;fillColor=#fff2cc;strokeColor=#d6b656;" vertex="1" parent="1">
          <mxGeometry x="130" y="190" width="120" height="60" as="geometry" />
        </mxCell>
        <mxCell id="xnhKSYxCUKzfGCIBuKpv-9" value="编解码器" style="rounded=0;whiteSpace=wrap;html=1;fontSize=8;" vertex="1" parent="1">
          <mxGeometry x="130" y="190" width="20" height="60" as="geometry" />
        </mxCell>
        <mxCell id="xnhKSYxCUKzfGCIBuKpv-39" value="&lt;font style=&quot;font-size: 12px&quot;&gt;事件&lt;/font&gt;" style="rounded=0;orthogonalLoop=1;jettySize=auto;html=1;fontSize=17;exitX=1;exitY=0.5;exitDx=0;exitDy=0;entryX=0.5;entryY=1;entryDx=0;entryDy=0;entryPerimeter=0;elbow=vertical;endArrow=blockThin;endFill=1;endSize=12;" edge="1" parent="1" source="xnhKSYxCUKzfGCIBuKpv-10" target="xnhKSYxCUKzfGCIBuKpv-1">
          <mxGeometry relative="1" as="geometry" />
        </mxCell>
        <mxCell id="xnhKSYxCUKzfGCIBuKpv-10" value="输入插件" style="rounded=1;whiteSpace=wrap;html=1;fontSize=17;fillColor=#fff2cc;strokeColor=#d6b656;" vertex="1" parent="1">
          <mxGeometry x="130" y="280" width="120" height="60" as="geometry" />
        </mxCell>
        <mxCell id="xnhKSYxCUKzfGCIBuKpv-11" value="编解码器" style="rounded=0;whiteSpace=wrap;html=1;fontSize=8;" vertex="1" parent="1">
          <mxGeometry x="130" y="280" width="20" height="60" as="geometry" />
        </mxCell>
        <mxCell id="xnhKSYxCUKzfGCIBuKpv-40" value="事件" style="rounded=0;orthogonalLoop=1;jettySize=auto;html=1;fontSize=12;exitX=1;exitY=0.5;exitDx=0;exitDy=0;entryX=0.5;entryY=1;entryDx=0;entryDy=0;entryPerimeter=0;elbow=vertical;endArrow=blockThin;endFill=1;endSize=12;" edge="1" parent="1" source="xnhKSYxCUKzfGCIBuKpv-12" target="xnhKSYxCUKzfGCIBuKpv-1">
          <mxGeometry relative="1" as="geometry">
            <mxPoint x="340" y="230" as="targetPoint" />
          </mxGeometry>
        </mxCell>
        <mxCell id="xnhKSYxCUKzfGCIBuKpv-12" value="输入插件" style="rounded=1;whiteSpace=wrap;html=1;fontSize=17;fillColor=#fff2cc;strokeColor=#d6b656;" vertex="1" parent="1">
          <mxGeometry x="130" y="370" width="120" height="60" as="geometry" />
        </mxCell>
        <mxCell id="xnhKSYxCUKzfGCIBuKpv-13" value="编解码器" style="rounded=0;whiteSpace=wrap;html=1;fontSize=8;" vertex="1" parent="1">
          <mxGeometry x="130" y="370" width="20" height="60" as="geometry" />
        </mxCell>
        <mxCell id="xnhKSYxCUKzfGCIBuKpv-14" value="死信队列" style="shape=cylinder3;whiteSpace=wrap;html=1;boundedLbl=1;backgroundOutline=1;size=15;rotation=0;fillColor=#bac8d3;strokeColor=#23445d;" vertex="1" parent="1">
          <mxGeometry x="357.5" y="367" width="79" height="61.5" as="geometry" />
        </mxCell>
        <mxCell id="xnhKSYxCUKzfGCIBuKpv-15" value="事件队列" style="text;html=1;strokeColor=none;fillColor=none;align=center;verticalAlign=middle;whiteSpace=wrap;rounded=0;fontSize=17;" vertex="1" parent="1">
          <mxGeometry x="361.5" y="198.5" width="20" height="60" as="geometry" />
        </mxCell>
        <mxCell id="xnhKSYxCUKzfGCIBuKpv-16" value="&lt;font style=&quot;font-size: 15px&quot;&gt;过滤器插件&lt;/font&gt;" style="rounded=1;whiteSpace=wrap;html=1;fontSize=17;fillColor=#f8cecc;strokeColor=#b85450;" vertex="1" parent="1">
          <mxGeometry x="480" y="140" width="100" height="40" as="geometry" />
        </mxCell>
        <mxCell id="xnhKSYxCUKzfGCIBuKpv-46" value="" style="edgeStyle=orthogonalEdgeStyle;rounded=0;orthogonalLoop=1;jettySize=auto;html=1;endArrow=blockThin;endFill=1;endSize=12;fontSize=12;entryX=0.5;entryY=0;entryDx=0;entryDy=0;" edge="1" parent="1" source="xnhKSYxCUKzfGCIBuKpv-17" target="xnhKSYxCUKzfGCIBuKpv-18">
          <mxGeometry relative="1" as="geometry" />
        </mxCell>
        <mxCell id="xnhKSYxCUKzfGCIBuKpv-17" value="&lt;font style=&quot;font-size: 15px&quot;&gt;过滤器插件&lt;/font&gt;" style="rounded=1;whiteSpace=wrap;html=1;fontSize=17;fillColor=#f8cecc;strokeColor=#b85450;" vertex="1" parent="1">
          <mxGeometry x="480" y="210" width="100" height="40" as="geometry" />
        </mxCell>
        <mxCell id="xnhKSYxCUKzfGCIBuKpv-47" value="" style="edgeStyle=orthogonalEdgeStyle;rounded=0;orthogonalLoop=1;jettySize=auto;html=1;endArrow=blockThin;endFill=1;endSize=12;fontSize=12;" edge="1" parent="1" source="xnhKSYxCUKzfGCIBuKpv-18" target="xnhKSYxCUKzfGCIBuKpv-19">
          <mxGeometry relative="1" as="geometry" />
        </mxCell>
        <mxCell id="xnhKSYxCUKzfGCIBuKpv-18" value="&lt;font style=&quot;font-size: 15px&quot;&gt;过滤器插件&lt;/font&gt;" style="rounded=1;whiteSpace=wrap;html=1;fontSize=17;fillColor=#f8cecc;strokeColor=#b85450;" vertex="1" parent="1">
          <mxGeometry x="480" y="280" width="100" height="40" as="geometry" />
        </mxCell>
        <mxCell id="xnhKSYxCUKzfGCIBuKpv-19" value="&lt;font style=&quot;font-size: 15px&quot;&gt;过滤器插件&lt;/font&gt;" style="rounded=1;whiteSpace=wrap;html=1;fontSize=17;fillColor=#f8cecc;strokeColor=#b85450;" vertex="1" parent="1">
          <mxGeometry x="480" y="350" width="100" height="40" as="geometry" />
        </mxCell>
        <mxCell id="xnhKSYxCUKzfGCIBuKpv-22" value="输出插件" style="rounded=1;whiteSpace=wrap;html=1;fontSize=17;fillColor=#dae8fc;strokeColor=#6c8ebf;" vertex="1" parent="1">
          <mxGeometry x="640" y="191.5" width="120" height="60" as="geometry" />
        </mxCell>
        <mxCell id="xnhKSYxCUKzfGCIBuKpv-23" value="&lt;font style=&quot;font-size: 10px&quot;&gt;编解码器&lt;/font&gt;" style="rounded=0;whiteSpace=wrap;html=1;fontSize=8;" vertex="1" parent="1">
          <mxGeometry x="740" y="191.5" width="20" height="60" as="geometry" />
        </mxCell>
        <mxCell id="xnhKSYxCUKzfGCIBuKpv-24" value="输出插件" style="rounded=1;whiteSpace=wrap;html=1;fontSize=17;fillColor=#dae8fc;strokeColor=#6c8ebf;" vertex="1" parent="1">
          <mxGeometry x="640" y="280" width="120" height="60" as="geometry" />
        </mxCell>
        <mxCell id="xnhKSYxCUKzfGCIBuKpv-25" value="&lt;font style=&quot;font-size: 10px&quot;&gt;编解码器&lt;/font&gt;" style="rounded=0;whiteSpace=wrap;html=1;fontSize=8;" vertex="1" parent="1">
          <mxGeometry x="740" y="280" width="20" height="60" as="geometry" />
        </mxCell>
        <mxCell id="xnhKSYxCUKzfGCIBuKpv-26" value="输出插件" style="rounded=1;whiteSpace=wrap;html=1;fontSize=17;fillColor=#dae8fc;strokeColor=#6c8ebf;" vertex="1" parent="1">
          <mxGeometry x="640" y="368.5" width="120" height="60" as="geometry" />
        </mxCell>
        <mxCell id="xnhKSYxCUKzfGCIBuKpv-27" value="&lt;font style=&quot;font-size: 10px&quot;&gt;编解码器&lt;/font&gt;" style="rounded=0;whiteSpace=wrap;html=1;fontSize=8;" vertex="1" parent="1">
          <mxGeometry x="740" y="368.5" width="20" height="60" as="geometry" />
        </mxCell>
        <mxCell id="xnhKSYxCUKzfGCIBuKpv-33" value="数据" style="edgeStyle=orthogonalEdgeStyle;rounded=0;orthogonalLoop=1;jettySize=auto;html=1;fontSize=12;" edge="1" parent="1" source="xnhKSYxCUKzfGCIBuKpv-29" target="xnhKSYxCUKzfGCIBuKpv-3">
          <mxGeometry relative="1" as="geometry" />
        </mxCell>
        <mxCell id="xnhKSYxCUKzfGCIBuKpv-29" value="数据库" style="aspect=fixed;html=1;points=[];align=center;image;fontSize=12;image=img/lib/mscae/StorSimple_Data_Managers.svg;" vertex="1" parent="1">
          <mxGeometry x="20" y="105" width="37" height="50" as="geometry" />
        </mxCell>
        <mxCell id="xnhKSYxCUKzfGCIBuKpv-34" value="数据" style="edgeStyle=orthogonalEdgeStyle;rounded=0;orthogonalLoop=1;jettySize=auto;html=1;fontSize=12;" edge="1" parent="1" source="xnhKSYxCUKzfGCIBuKpv-30" target="xnhKSYxCUKzfGCIBuKpv-9">
          <mxGeometry relative="1" as="geometry" />
        </mxCell>
        <mxCell id="xnhKSYxCUKzfGCIBuKpv-30" value="文件" style="aspect=fixed;html=1;points=[];align=center;image;fontSize=12;image=img/lib/mscae/AzureFXTEdgeFiler.svg;" vertex="1" parent="1">
          <mxGeometry x="14" y="195" width="50" height="50" as="geometry" />
        </mxCell>
        <mxCell id="xnhKSYxCUKzfGCIBuKpv-35" value="数据" style="edgeStyle=orthogonalEdgeStyle;rounded=0;orthogonalLoop=1;jettySize=auto;html=1;fontSize=12;" edge="1" parent="1" source="xnhKSYxCUKzfGCIBuKpv-31" target="xnhKSYxCUKzfGCIBuKpv-11">
          <mxGeometry relative="1" as="geometry" />
        </mxCell>
        <mxCell id="xnhKSYxCUKzfGCIBuKpv-31" value="Beats" style="aspect=fixed;html=1;points=[];align=center;image;fontSize=12;image=img/lib/mscae/Blog_Storage.svg;" vertex="1" parent="1">
          <mxGeometry x="14" y="287" width="50" height="46" as="geometry" />
        </mxCell>
        <mxCell id="xnhKSYxCUKzfGCIBuKpv-36" value="数据" style="edgeStyle=orthogonalEdgeStyle;rounded=0;orthogonalLoop=1;jettySize=auto;html=1;fontSize=12;" edge="1" parent="1" source="xnhKSYxCUKzfGCIBuKpv-32" target="xnhKSYxCUKzfGCIBuKpv-13">
          <mxGeometry relative="1" as="geometry" />
        </mxCell>
        <mxCell id="xnhKSYxCUKzfGCIBuKpv-32" value="MQ" style="aspect=fixed;html=1;points=[];align=center;image;fontSize=12;image=img/lib/mscae/Event_Grid_Topics.svg;" vertex="1" parent="1">
          <mxGeometry x="14" y="375" width="50" height="50" as="geometry" />
        </mxCell>
        <mxCell id="xnhKSYxCUKzfGCIBuKpv-43" value="过滤器链" style="text;html=1;strokeColor=none;fillColor=none;align=center;verticalAlign=middle;whiteSpace=wrap;rounded=0;dashed=1;fontSize=12;" vertex="1" parent="1">
          <mxGeometry x="510" y="105" width="50" height="20" as="geometry" />
        </mxCell>
        <mxCell id="xnhKSYxCUKzfGCIBuKpv-44" value="" style="ellipse;whiteSpace=wrap;html=1;rounded=0;dashed=1;" vertex="1" parent="1">
          <mxGeometry x="470" y="590" width="120" height="80" as="geometry" />
        </mxCell>
        <mxCell id="xnhKSYxCUKzfGCIBuKpv-49" value="事件" style="edgeStyle=orthogonalEdgeStyle;rounded=0;orthogonalLoop=1;jettySize=auto;html=1;endArrow=blockThin;endFill=1;endSize=12;fontSize=12;entryX=0.5;entryY=0;entryDx=0;entryDy=0;" edge="1" parent="1" target="xnhKSYxCUKzfGCIBuKpv-17">
          <mxGeometry relative="1" as="geometry">
            <mxPoint x="530" y="180" as="sourcePoint" />
            <mxPoint x="540" y="360" as="targetPoint" />
          </mxGeometry>
        </mxCell>
        <mxCell id="xnhKSYxCUKzfGCIBuKpv-52" value="" style="shape=flexArrow;endArrow=classic;html=1;fontSize=12;" edge="1" parent="1">
          <mxGeometry width="50" height="50" relative="1" as="geometry">
            <mxPoint x="760" y="129.5" as="sourcePoint" />
            <mxPoint x="810" y="129.5" as="targetPoint" />
          </mxGeometry>
        </mxCell>
        <mxCell id="xnhKSYxCUKzfGCIBuKpv-53" value="" style="shape=flexArrow;endArrow=classic;html=1;fontSize=12;" edge="1" parent="1">
          <mxGeometry width="50" height="50" relative="1" as="geometry">
            <mxPoint x="760" y="221" as="sourcePoint" />
            <mxPoint x="810" y="221" as="targetPoint" />
          </mxGeometry>
        </mxCell>
        <mxCell id="xnhKSYxCUKzfGCIBuKpv-54" value="" style="shape=flexArrow;endArrow=classic;html=1;fontSize=12;" edge="1" parent="1">
          <mxGeometry width="50" height="50" relative="1" as="geometry">
            <mxPoint x="760" y="309.5" as="sourcePoint" />
            <mxPoint x="810" y="309.5" as="targetPoint" />
          </mxGeometry>
        </mxCell>
        <mxCell id="xnhKSYxCUKzfGCIBuKpv-55" value="" style="shape=flexArrow;endArrow=classic;html=1;fontSize=12;" edge="1" parent="1">
          <mxGeometry width="50" height="50" relative="1" as="geometry">
            <mxPoint x="760" y="398" as="sourcePoint" />
            <mxPoint x="810" y="398" as="targetPoint" />
          </mxGeometry>
        </mxCell>
        <mxCell id="xnhKSYxCUKzfGCIBuKpv-57" value="" style="edgeStyle=orthogonalEdgeStyle;rounded=0;orthogonalLoop=1;jettySize=auto;html=1;endArrow=blockThin;endFill=1;endSize=12;fontSize=12;entryX=0;entryY=0.5;entryDx=0;entryDy=0;exitX=0.5;exitY=1;exitDx=0;exitDy=0;" edge="1" parent="1" source="xnhKSYxCUKzfGCIBuKpv-19" target="xnhKSYxCUKzfGCIBuKpv-24">
          <mxGeometry relative="1" as="geometry">
            <mxPoint x="550" y="450" as="sourcePoint" />
            <mxPoint x="660" y="418.5" as="targetPoint" />
            <Array as="points">
              <mxPoint x="530" y="410" />
              <mxPoint x="610" y="410" />
              <mxPoint x="610" y="310" />
            </Array>
          </mxGeometry>
        </mxCell>
        <mxCell id="xnhKSYxCUKzfGCIBuKpv-58" value="" style="edgeStyle=orthogonalEdgeStyle;rounded=0;orthogonalLoop=1;jettySize=auto;html=1;endArrow=blockThin;endFill=1;endSize=12;fontSize=12;entryX=0;entryY=0.5;entryDx=0;entryDy=0;exitX=0.5;exitY=1;exitDx=0;exitDy=0;" edge="1" parent="1" source="xnhKSYxCUKzfGCIBuKpv-19" target="xnhKSYxCUKzfGCIBuKpv-22">
          <mxGeometry relative="1" as="geometry">
            <mxPoint x="560" y="420" as="sourcePoint" />
            <mxPoint x="670" y="428.5" as="targetPoint" />
            <Array as="points">
              <mxPoint x="530" y="410" />
              <mxPoint x="610" y="410" />
              <mxPoint x="610" y="222" />
            </Array>
          </mxGeometry>
        </mxCell>
        <mxCell id="xnhKSYxCUKzfGCIBuKpv-59" value="" style="edgeStyle=orthogonalEdgeStyle;rounded=0;orthogonalLoop=1;jettySize=auto;html=1;endArrow=blockThin;endFill=1;endSize=12;fontSize=12;entryX=0;entryY=0.5;entryDx=0;entryDy=0;" edge="1" parent="1" target="xnhKSYxCUKzfGCIBuKpv-4">
          <mxGeometry relative="1" as="geometry">
            <mxPoint x="530" y="390" as="sourcePoint" />
            <mxPoint x="680" y="438.5" as="targetPoint" />
            <Array as="points">
              <mxPoint x="530" y="410" />
              <mxPoint x="610" y="410" />
              <mxPoint x="610" y="130" />
            </Array>
          </mxGeometry>
        </mxCell>
        <mxCell id="xnhKSYxCUKzfGCIBuKpv-65" value="数据" style="text;html=1;strokeColor=none;fillColor=none;align=center;verticalAlign=middle;whiteSpace=wrap;rounded=0;dashed=1;fontSize=12;" vertex="1" parent="1">
          <mxGeometry x="768" y="97" width="50" height="20" as="geometry" />
        </mxCell>
        <mxCell id="xnhKSYxCUKzfGCIBuKpv-66" value="数据" style="text;html=1;strokeColor=none;fillColor=none;align=center;verticalAlign=middle;whiteSpace=wrap;rounded=0;dashed=1;fontSize=12;" vertex="1" parent="1">
          <mxGeometry x="770" y="189" width="50" height="20" as="geometry" />
        </mxCell>
        <mxCell id="xnhKSYxCUKzfGCIBuKpv-68" value="数据" style="text;html=1;strokeColor=none;fillColor=none;align=center;verticalAlign=middle;whiteSpace=wrap;rounded=0;dashed=1;fontSize=12;" vertex="1" parent="1">
          <mxGeometry x="770" y="278" width="50" height="20" as="geometry" />
        </mxCell>
        <mxCell id="xnhKSYxCUKzfGCIBuKpv-69" value="数据" style="text;html=1;strokeColor=none;fillColor=none;align=center;verticalAlign=middle;whiteSpace=wrap;rounded=0;dashed=1;fontSize=12;" vertex="1" parent="1">
          <mxGeometry x="770" y="366" width="50" height="20" as="geometry" />
        </mxCell>
        <mxCell id="xnhKSYxCUKzfGCIBuKpv-72" value="目的仓库" style="rounded=0;whiteSpace=wrap;html=1;fontSize=17;" vertex="1" parent="1">
          <mxGeometry x="827" y="100" width="33" height="330" as="geometry" />
        </mxCell>
        <mxCell id="xnhKSYxCUKzfGCIBuKpv-73" value="" style="endArrow=classic;html=1;fontSize=17;edgeStyle=orthogonalEdgeStyle;entryX=0.599;entryY=1.047;entryDx=0;entryDy=0;entryPerimeter=0;strokeWidth=3;strokeColor=#FF0000;" edge="1" parent="1" target="xnhKSYxCUKzfGCIBuKpv-14">
          <mxGeometry width="50" height="50" relative="1" as="geometry">
            <mxPoint x="770" y="130" as="sourcePoint" />
            <mxPoint x="780" y="460" as="targetPoint" />
            <Array as="points">
              <mxPoint x="770" y="140" />
              <mxPoint x="770" y="450" />
              <mxPoint x="405" y="450" />
            </Array>
          </mxGeometry>
        </mxCell>
        <mxCell id="xnhKSYxCUKzfGCIBuKpv-75" value="Logstash事件管道" style="text;html=1;strokeColor=none;fillColor=none;align=center;verticalAlign=middle;whiteSpace=wrap;rounded=0;fontSize=17;" vertex="1" parent="1">
          <mxGeometry x="381.5" y="59" width="157.5" height="38" as="geometry" />
        </mxCell>
      </root>
    </mxGraphModel>
  </diagram>
</mxfile>
